#!OML:ASF F:\VICON\USERDATA\INSTALL\SteveWalk\SteveWalk.ASF
:FULLY-SPECIFIED
:DEGREES
350
root 0.466139 15.8436 28.3098 17.9637 5.22132 0.891955
lowerback -15.9257 -2.26032 0.721064
upperback -5.17208 -3.18002 2.09702
thorax 3.50118 -1.56524 1.2046
lowerneck -5.60863 -0.309457 0.263636
upperneck 9.48317 -0.137265 -3.03911
head 4.10948 -0.201368 -1.07098
rclavicle 5.95733e-015 0
rhumerus -97.7294 -40.9002 12.2082
rradius 10.4488
rwrist 71.1387
rhand -13.4391 -33.3747
rfingers 7.12502
rthumb 12.6699 -62.9704
lclavicle 5.95733e-015 0
lhumerus -21.9111 -4.31437 84.3015
lradius 56.337
lwrist 14.4344
lhand -24.1497 -18.5542
lfingers 7.12502
lthumb 2.33276 11.4128
rfemur -50.6088 -1.11178 21.8847
rtibia 34.1201
rfoot -5.69881 4.87791
rtoes -13.9322
lfemur -3.00367 -0.66956 -20.6735
ltibia 35.5225
lfoot 0.643908 -15.1332
ltoes -13.0449
351
root 0.481209 15.8599 28.5339 17.7861 5.17979 0.209505
lowerback -16.098 -2.08122 1.75641
upperback -4.85492 -3.12924 2.31128
thorax 3.88391 -1.53693 0.843092
lowerneck -6.22045 -0.165015 0.250779
upperneck 9.40889 0.0821042 -3.24739
head 4.21133 -0.107408 -1.13088
rclavicle -7.17985e-014 1.43125e-014
rhumerus -96.796 -42.1501 10.7509
rradius 10.605
rwrist 70.0012
rhand -13.1788 -33.7895
rfingers 7.12502
rthumb 12.9208 -63.3695
lclavicle -7.17985e-014 1.43125e-014
lhumerus -22.3682 -3.95162 84.5632
lradius 56.399
lwrist 14.8802
lhand -24.3723 -18.6246
lfingers 7.12502
lthumb 2.11782 11.3446
rfemur -50.1096 -1.27138 22.9251
rtibia 35.3183
rfoot -6.33976 5.76179
rtoes -7.07585
lfemur -4.39294 -0.499779 -19.9301
ltibia 38.722
lfoot 5.62526 -15.245
ltoes -7.62906
352
root 0.488585 15.8745 28.7464 17.7031 5.06045 -0.194493
lowerback -15.775 -1.93371 2.42583
upperback -5.13858 -3.02356 2.44073
thorax 3.38272 -1.49047 0.640446
lowerneck -5.38372 -0.0703501 0.308982
upperneck 9.13058 0.214632 -3.50057
head 3.94952 -0.0419532 -1.21036
rclavicle 4.66088e-014 -1.59028e-015
rhumerus -94.6535 -42.4125 7.71306
rradius 10.7356
rwrist 67.5393
rhand -13.4223 -33.797
rfingers 7.12502
rthumb 12.6861 -63.3916
lclavicle 4.66088e-014 -1.59028e-015
lhumerus -23.9752 -3.85516 84.9039
lradius 56.6643
lwrist 15.5067
lhand -24.5599 -18.5157
lfingers 7.12502
lthumb 1.93665 11.4553
rfemur -49.5899 -1.36063 23.6254
rtibia 36.2595
rfoot -7.17675 5.93343
rtoes -4.21634
lfemur -5.93093 -0.417233 -19.4805
ltibia 41.8925
lfoot 9.35968 -15.7096
ltoes -7.11349
353
root 0.481697 15.8812 28.9507 17.6061 4.65572 -0.134987
lowerback -15.5918 -1.84925 2.30784
upperback -4.8721 -2.89853 2.43889
thorax 3.57271 -1.42608 0.727981
lowerneck -6.20365 0.00607376 0.616026
upperneck 9.14706 0.317461 -3.74479
head 4.12515 0.000941287 -1.3486
rclavicle -2.79541e-015 -4.77083e-015
rhumerus -95.5645 -43.7031 8.94533
rradius 10.6707
rwrist 68.2542
rhand -13.881 -33.3555
rfingers 7.12502
rthumb 12.2438 -62.9771
lclavicle -2.79541e-015 -4.77083e-015
lhumerus -24.3444 -3.7504 85.0708
lradius 56.534
lwrist 16.029
lhand -24.7805 -18.2337
lfingers 7.12502
lthumb 1.72352 11.7391
rfemur -49.0903 -1.09265 23.6692
rtibia 37.0294
rfoot -8.09435 5.70811
rtoes -5.48698
lfemur -7.34407 -0.350267 -19.5935
ltibia 44.884
lfoot 12.1734 -16.2657
ltoes -8.46498
354
root 0.477015 15.8979 29.1702 17.3985 4.37502 -0.0658516
lowerback -15.422 -1.77155 2.21631
upperback -4.88775 -2.77528 2.42791
thorax 3.46937 -1.36644 0.795991
lowerneck -5.91335 0.0479579 0.639415
upperneck 9.10895 0.373603 -3.7921
head 4.0555 0.0303846 -1.36317
rclavicle -2.25372e-014 -1.11319e-014
rhumerus -97.4697 -44.112 11.6626
rradius 10.5268
rwrist 70.3272
rhand -14.5554 -32.313
rfingers 7.12502
rthumb 11.5935 -61.9723
lclavicle -2.25372e-014 -1.11319e-014
lhumerus -25.3538 -3.65427 85.3711
lradius 56.1882
lwrist 16.2697
lhand -24.8616 -18.1512
lfingers 7.12502
lthumb 1.6452 11.8222
rfemur -48.3255 -1.1049 23.7837
rtibia 37.6022
rfoot -8.75951 6.08333
rtoes -4.38646
lfemur -8.53969 -0.391071 -19.7104
ltibia 47.7082
lfoot 14.7724 -16.4672
ltoes -10.2761
355
root 0.477973 15.9281 29.4075 17.0441 4.37705 -0.244848
lowerback -15.3907 -1.70099 2.45953
upperback -4.75655 -2.72458 2.47995
thorax 3.58191 -1.33949 0.72142
lowerneck -5.93796 0.0972619 0.570145
upperneck 9.21101 0.449006 -3.77969
head 4.09835 0.0645179 -1.34393
rclavicle 9.23106e-015 -9.54166e-015
rhumerus -93.5925 -45.1198 5.88112
rradius 10.7311
rwrist 65.7451
rhand -14.4318 -33.2878
rfingers 7.12502
rthumb 11.7128 -62.9404
lclavicle 9.23106e-015 -9.54166e-015
lhumerus -26.1701 -3.59312 85.7061
lradius 55.6975
lwrist 16.5161
lhand -24.849 -18.3658
lfingers 7.12502
lthumb 1.65744 11.6075
rfemur -47.2144 -1.52146 24.3036
rtibia 38.048
rfoot -9.65219 6.72851
rtoes -3.69502
lfemur -9.48862 -0.497554 -19.4912
ltibia 50.3823
lfoot 17.3584 -16.1978
ltoes -13.1545
356
root 0.467934 15.9567 29.632 16.6701 4.21057 -0.587593
lowerback -15.2514 -1.53734 2.65844
upperback -4.62579 -2.54393 2.60824
thorax 3.64255 -1.24843 0.778435
lowerneck -5.93051 0.129858 0.567721
upperneck 9.23677 0.501035 -3.84948
head 4.10814 0.086746 -1.36459
rclavicle -1.78906e-015 -7.95139e-015
rhumerus -90.6183 -45.9006 1.52526
rradius 10.9326
rwrist 62.4154
rhand -14.4629 -33.4024
rfingers 7.12502
rthumb 11.6828 -63.0566
lclavicle -1.78906e-015 -7.95139e-015
lhumerus -26.7917 -3.70184 86.1825
lradius 54.9744
lwrist 16.9552
lhand -24.9408 -18.4989
lfingers 7.12502
lthumb 1.56876 11.475
rfemur -45.9978 -1.43711 24.84
rtibia 38.2132
rfoot -10.5985 6.71153
rtoes -4.2237
lfemur -10.6126 -0.283084 -19.0784
ltibia 53.1267
lfoot 19.9579 -15.3642
ltoes -15.6772
357
root 0.494202 15.9961 29.8246 16.6985 4.93618 -0.311852
lowerback -14.9677 -1.61357 2.94248
upperback -4.89561 -2.65628 2.50611
thorax 3.18695 -1.31088 0.505303
lowerneck -5.4839 0.102338 0.429016
upperneck 9.27117 0.474899 -3.84149
head 4.02953 0.0732746 -1.33575
rclavicle 1.0666e-014 -1.35174e-014
rhumerus -88.0953 -46.1887 -2.10176
rradius 11.1051
rwrist 59.6412
rhand -14.5347 -33.277
rfingers 7.12502
rthumb 11.6135 -62.9352
lclavicle 1.0666e-014 -1.35174e-014
lhumerus -27.6229 -3.83512 86.7725
lradius 54.023
lwrist 17.2095
lhand -24.8474 -18.4896
lfingers 7.12502
lthumb 1.65895 11.4837
rfemur -45.2088 -2.93083 24.9888
rtibia 38.2476
rfoot -11.4531 7.31975
rtoes -3.03953
lfemur -12.3973 -0.978625 -19.3104
ltibia 55.8733
lfoot 22.0856 -13.8998
ltoes -16.6142
358
root 0.461858 16.019 30.0167 16.6846 5.01625 -0.819522
lowerback -14.7472 -1.4977 3.04124
upperback -5.07003 -2.50984 2.76073
thorax 2.89354 -1.24167 0.751061
lowerneck -5.18062 0.0374535 0.302127
upperneck 9.39393 0.399521 -3.82688
head 4.01006 0.0337846 -1.31136
rclavicle 2.2913e-014 -7.95139e-016
rhumerus -87.1521 -46.7018 -3.41134
rradius 11.0814
rwrist 58.5096
rhand -15.1567 -32.5237
rfingers 7.12502
rthumb 11.0136 -62.2148
lclavicle 2.2913e-014 -7.95139e-016
lhumerus -28.303 -3.81529 87.3147
lradius 52.9104
lwrist 17.0833
lhand -24.5941 -18.5054
lfingers 7.12502
lthumb 1.90354 11.4658
rfemur -44.3876 -2.25656 25.4947
rtibia 38.1478
rfoot -12.0212 6.5489
rtoes -3.969
lfemur -14.3833 -0.632099 -18.5087
ltibia 58.6869
lfoot 22.7504 -13.1546
ltoes -17.2735
359
root 0.456672 16.0378 30.2247 16.6743 4.79695 -1.13142
lowerback -14.9108 -1.25525 3.25231
upperback -5.01985 -2.23364 2.84579
thorax 3.03065 -1.10267 0.76328
lowerneck -5.25892 -0.0537817 0.286115
upperneck 9.53583 0.289419 -3.88448
head 4.07394 -0.0261138 -1.33587
rclavicle -1.62755e-015 -1.35174e-014
rhumerus -82.4221 -47.0399 -10.0209
rradius 11.3699
rwrist 53.8554
rhand -15.0948 -33.3357
rfingers 7.12502
rthumb 11.0733 -63.0236
lclavicle -1.62755e-015 -1.35174e-014
lhumerus -28.6292 -3.83229 87.8339
lradius 51.5804
lwrist 16.8515
lhand -24.6992 -18.4695
lfingers 7.12502
lthumb 1.80206 11.5026
rfemur -43.4598 -1.93553 25.8405
rtibia 38.0439
rfoot -12.7736 6.2225
rtoes -6.06505
lfemur -16.1464 -0.15321 -18.2
ltibia 61.3208
lfoot 22.4584 -11.8988
ltoes -15.9623
360
root 0.466121 16.0602 30.4456 16.7326 4.53616 -1.14265
lowerback -15.3231 -1.02934 3.35224
upperback -4.96384 -1.97207 2.7987
thorax 3.30727 -0.969187 0.693438
lowerneck -5.30038 -0.124936 0.24873
upperneck 9.72573 0.208403 -3.92861
head 4.14833 -0.0720569 -1.35109
rclavicle 1.43933e-014 9.54166e-015
rhumerus -78.9046 -47.3648 -14.7617
rradius 11.5954
rwrist 50.7338
rhand -14.7606 -33.7103
rfingers 7.12502
rthumb 11.3957 -63.3806
lclavicle 1.43933e-014 9.54166e-015
lhumerus -28.9727 -3.936 88.3322
lradius 50.0774
lwrist 16.6944
lhand -24.8774 -18.4136
lfingers 7.12502
lthumb 1.62996 11.5599
rfemur -42.4948 -1.91921 25.8726
rtibia 37.8473
rfoot -13.3587 6.31942
rtoes -5.12128
lfemur -17.7874 0.246616 -18.3326
ltibia 63.7169
lfoot 21.3672 -10.258
ltoes -13.5335
361
root 0.466051 16.0839 30.6437 16.7928 4.49387 -1.44917
lowerback -15.4721 -0.868878 3.6163
upperback -5.01725 -1.8095 2.89812
thorax 3.32645 -0.888436 0.676218
lowerneck -5.03629 -0.125588 0.305954
upperneck 9.78218 0.220009 -4.1068
head 4.11781 -0.0703508 -1.41974
rclavicle 1.32994e-014 -3.18055e-014
rhumerus -77.1994 -48.0229 -16.7854
rradius 11.6215
rwrist 49.7643
rhand -14.7168 -33.0569
rfingers 7.12502
rthumb 11.4378 -62.7249
lclavicle 1.32994e-014 -3.18055e-014
lhumerus -29.4073 -3.87514 88.771
lradius 48.4856
lwrist 16.458
lhand -24.6924 -18.6434
lfingers 7.12502
lthumb 1.80863 11.3287
rfemur -41.6651 -1.73994 26.2048
rtibia 37.5903
rfoot -13.7206 6.38372
rtoes -1.99472
lfemur -19.592 0.588924 -18.0061
ltibia 65.8859
lfoot 19.7309 -8.85576
ltoes -11.9339
362
root 0.461446 16.111 30.8272 16.7419 4.51802 -1.91689
lowerback -15.5323 -0.727798 3.95989
upperback -4.91675 -1.69125 3.06984
thorax 3.46056 -0.826795 0.682974
lowerneck -4.91009 -0.108237 0.357235
upperneck 9.70789 0.250668 -4.25975
head 4.06852 -0.0579627 -1.47711
rclavicle 5.66847e-016 1.03368e-014
rhumerus -74.2862 -48.5273 -20.3287
rradius 11.7513
rwrist 48.0529
rhand -14.8455 -32.232
rfingers 7.12502
rthumb 11.3138 -61.9068
lclavicle 5.66847e-016 1.03368e-014
lhumerus -29.4777 -3.57572 89.1037
lradius 46.74
lwrist 15.7936
lhand -24.3869 -18.5746
lfingers 7.12502
lthumb 2.10368 11.3948
rfemur -40.8036 -1.45633 26.706
rtibia 37.331
rfoot -14.1203 6.36934
rtoes 0.731808
lfemur -21.3912 0.920903 -17.456
ltibia 67.8567
lfoot 18.0175 -7.60279
ltoes -10.8247
363
root 0.458963 16.1607 31.0241 16.7592 4.70193 -1.89023
lowerback -15.3068 -0.710217 3.90854
upperback -5.11935 -1.63549 3.07145
thorax 3.12816 -0.80515 0.728557
lowerneck -4.75719 -0.111265 0.329597
upperneck 9.94588 0.251133 -4.20784
head 4.12256 -0.0575646 -1.45665
rclavicle -1.55456e-014 -3.18055e-015
rhumerus -70.015 -47.8654 -25.9064
rradius 12.0496
rwrist 44.7825
rhand -14.7243 -32.18
rfingers 7.12502
rthumb 11.4307 -61.8484
lclavicle -1.55456e-014 -3.18055e-015
lhumerus -30.0231 -3.34208 89.3728
lradius 44.9427
lwrist 14.9157
lhand -23.9302 -18.2438
lfingers 7.12502
lthumb 2.54481 11.7208
rfemur -39.8346 -1.53697 26.7267
rtibia 36.9924
rfoot -14.6764 6.21325
rtoes 1.60454
lfemur -23.1244 0.924043 -17.4727
ltibia 69.5004
lfoot 16.1232 -6.46519
ltoes -9.70779
